<svg width="24" height="24" viewBox="0 0 24 24" fill="none" xmlns="http://www.w3.org/2000/svg">
<path d="M6.7467 5.0802C6.65955 5.16736 6.60938 5.28839 6.60938 5.41162C6.60938 5.5354 6.65955 5.65588 6.7467 5.74304C6.83386 5.8302 6.9549 5.88037 7.07812 5.88037C7.2019 5.88037 7.32239 5.8302 7.40955 5.74304C7.4967 5.65588 7.54688 5.5354 7.54688 5.41162C7.54688 5.28839 7.4967 5.16736 7.40955 5.0802C7.32239 4.99304 7.2019 4.94287 7.07812 4.94287C6.9549 4.94287 6.83386 4.99304 6.7467 5.0802Z" fill="black"/>
<path d="M19.8133 4.94336H8.95312C8.69421 4.94336 8.48438 5.1532 8.48438 5.41211C8.48438 5.67102 8.69421 5.88086 8.95312 5.88086H19.8133C20.2092 5.88086 20.5312 6.20276 20.5312 6.59863V16.219H17.4159C17.157 16.219 16.9471 16.4288 16.9471 16.6877C16.9471 16.9467 17.157 17.1565 17.4159 17.1565H20.5312V17.376C20.5312 17.7719 20.2092 18.094 19.8133 18.094H6.12323C6.01282 18.094 5.90588 18.133 5.82129 18.2042L3.46875 20.1852V6.59863C3.46875 6.20276 3.79083 5.88086 4.18671 5.88086H5.20331C5.46204 5.88086 5.67206 5.67102 5.67206 5.41211C5.67206 5.1532 5.46204 4.94336 5.20331 4.94336H4.18671C3.27393 4.94336 2.53125 5.68585 2.53125 6.59863V21.1929C2.53125 21.3752 2.6369 21.541 2.80225 21.6179C2.86542 21.6472 2.9328 21.6616 2.99982 21.6616C3.1084 21.6616 3.2157 21.6239 3.30194 21.5514L6.29425 19.0315H19.8133C20.7261 19.0315 21.4688 18.2888 21.4688 17.376V6.59863C21.4688 5.68585 20.7261 4.94336 19.8133 4.94336Z" fill="black"/>
<path d="M12 3.27979C12.2589 3.27979 12.4688 3.06995 12.4688 2.81104V0.46875C12.4688 0.209839 12.2589 0 12 0C11.7411 0 11.5312 0.209839 11.5312 0.46875V2.81104C11.5312 3.06995 11.7411 3.27979 12 3.27979Z" fill="black"/>
<path d="M15.533 3.46985C15.6531 3.46985 15.7728 3.42407 15.8644 3.33252L17.5032 1.69391C17.6863 1.5108 17.6863 1.21399 17.5032 1.03088C17.3201 0.847778 17.0233 0.847778 16.8401 1.03088L15.2015 2.66949C15.0184 2.8526 15.0184 3.14941 15.2015 3.33252C15.2931 3.42407 15.413 3.46985 15.533 3.46985Z" fill="black"/>
<path d="M8.1355 3.32959C8.22705 3.42114 8.34698 3.46692 8.46692 3.46692C8.58685 3.46692 8.70679 3.42114 8.79834 3.32959C8.98145 3.14648 8.98145 2.84967 8.79834 2.66656L7.15955 1.02795C6.97662 0.844849 6.67981 0.844849 6.4967 1.02795C6.3136 1.21106 6.3136 1.50769 6.4967 1.6908L8.1355 3.32959Z" fill="black"/>
<path d="M12 20.7202C11.7411 20.7202 11.5312 20.9301 11.5312 21.189V23.5312C11.5312 23.7902 11.7411 24 12 24C12.2589 24 12.4688 23.7902 12.4688 23.5312V21.189C12.4688 20.9301 12.2589 20.7202 12 20.7202Z" fill="black"/>
<path d="M15.8644 20.6671C15.6813 20.484 15.3846 20.484 15.2015 20.6671C15.0184 20.8502 15.0184 21.147 15.2015 21.3301L16.8401 22.9688C16.9317 23.0603 17.0516 23.1061 17.1716 23.1061C17.2917 23.1061 17.4116 23.0603 17.5032 22.9688C17.6861 22.7856 17.6861 22.4888 17.5032 22.3057L15.8644 20.6671Z" fill="black"/>
<path d="M8.1355 20.6705L6.4967 22.3093C6.3136 22.4924 6.3136 22.7891 6.4967 22.9722C6.58826 23.0637 6.70819 23.1095 6.82812 23.1095C6.94806 23.1095 7.06799 23.0637 7.15955 22.9722L8.79834 21.3336C8.98145 21.1505 8.98145 20.8536 8.79834 20.6705C8.61523 20.4874 8.3186 20.4874 8.1355 20.6705Z" fill="black"/>
<path d="M16.3086 11.7023C16.3086 10.4738 15.3094 9.47461 14.0809 9.47461H13.064C12.8052 9.47461 12.5952 9.68445 12.5952 9.94336V14.0684C12.5952 14.3271 12.8052 14.5371 13.064 14.5371H14.0809C15.3092 14.5371 16.3086 13.5377 16.3086 12.3093V11.7023ZM15.3711 12.3093C15.3711 13.0208 14.7923 13.5996 14.0809 13.5996H13.5327V10.4121H14.0809C14.7923 10.4121 15.3711 10.9907 15.3711 11.7023V12.3093Z" fill="black"/>
<path d="M8.11221 12.7403L7.71579 13.9188C7.63321 14.1641 7.76505 14.43 8.01041 14.5126C8.25614 14.5951 8.52164 14.4631 8.60422 14.2178L8.89682 13.3482H10.1991L10.4917 14.2178C10.5574 14.4135 10.74 14.5371 10.9359 14.5371C10.9855 14.5371 11.0359 14.5292 11.0853 14.5126C11.3307 14.43 11.4627 14.1641 11.3801 13.9188L9.99216 9.79376C9.92807 9.60297 9.74918 9.47461 9.54795 9.47461C9.34671 9.47461 9.16782 9.60297 9.10373 9.79376L8.11258 12.7394C8.1124 12.7397 8.11221 12.7399 8.11221 12.7403ZM9.54795 11.4131L9.88358 12.4107H9.21231L9.54795 11.4131Z" fill="black"/>
<path d="M15.233 16.3561C15.1459 16.4432 15.0957 16.5643 15.0957 16.6875C15.0957 16.8113 15.1459 16.9318 15.233 17.0189C15.3204 17.1061 15.4412 17.1562 15.5645 17.1562C15.6879 17.1562 15.8087 17.1061 15.8959 17.0189C15.983 16.9318 16.0332 16.8107 16.0332 16.6875C16.0332 16.5643 15.983 16.4432 15.8959 16.3561C15.8087 16.2689 15.6879 16.2188 15.5645 16.2188C15.4412 16.2188 15.3202 16.2689 15.233 16.3561Z" fill="black"/>
</svg>
