<svg width="24" height="24" viewBox="0 0 24 24" fill="none" xmlns="http://www.w3.org/2000/svg">
<path d="M6.7467 5.0802C6.65955 5.16736 6.60938 5.28839 6.60938 5.41162C6.60938 5.5354 6.65955 5.65588 6.7467 5.74304C6.83386 5.8302 6.9549 5.88037 7.07812 5.88037C7.2019 5.88037 7.32239 5.8302 7.40955 5.74304C7.4967 5.65588 7.54688 5.5354 7.54688 5.41162C7.54688 5.28839 7.4967 5.16736 7.40955 5.0802C7.32239 4.99304 7.2019 4.94287 7.07812 4.94287C6.9549 4.94287 6.83386 4.99304 6.7467 5.0802Z" fill="#5D5FEF"/>
<path d="M19.8133 4.94312H8.95312C8.69421 4.94312 8.48438 5.15295 8.48438 5.41187C8.48438 5.67078 8.69421 5.88062 8.95312 5.88062H19.8133C20.2092 5.88062 20.5312 6.20251 20.5312 6.59839V16.2188H17.4159C17.157 16.2188 16.9471 16.4286 16.9471 16.6875C16.9471 16.9464 17.157 17.1562 17.4159 17.1562H20.5312V17.3758C20.5312 17.7717 20.2092 18.0938 19.8133 18.0938H6.12323C6.01282 18.0938 5.90588 18.1328 5.82129 18.204L3.46875 20.185V6.59839C3.46875 6.20251 3.79083 5.88062 4.18671 5.88062H5.20331C5.46204 5.88062 5.67206 5.67078 5.67206 5.41187C5.67206 5.15295 5.46204 4.94312 5.20331 4.94312H4.18671C3.27393 4.94312 2.53125 5.68561 2.53125 6.59839V21.1926C2.53125 21.375 2.6369 21.5407 2.80225 21.6176C2.86542 21.6469 2.9328 21.6614 2.99982 21.6614C3.1084 21.6614 3.2157 21.6237 3.30194 21.5511L6.29425 19.0312H19.8133C20.7261 19.0312 21.4688 18.2886 21.4688 17.3758V6.59839C21.4688 5.68561 20.7261 4.94312 19.8133 4.94312V4.94312Z" fill="#5D5FEF"/>
<path d="M12 3.27979C12.2589 3.27979 12.4688 3.06995 12.4688 2.81104V0.46875C12.4688 0.209839 12.2589 0 12 0C11.7411 0 11.5312 0.209839 11.5312 0.46875V2.81104C11.5312 3.06995 11.7411 3.27979 12 3.27979Z" fill="#5D5FEF"/>
<path d="M15.5332 3.47009C15.6533 3.47009 15.7731 3.42432 15.8646 3.33276L17.5034 1.69415C17.6865 1.51105 17.6865 1.21423 17.5034 1.03113C17.3203 0.848022 17.0235 0.848022 16.8404 1.03113L15.2018 2.66974C15.0187 2.85284 15.0187 3.14966 15.2018 3.33276C15.2933 3.42432 15.4133 3.47009 15.5332 3.47009Z" fill="#5D5FEF"/>
<path d="M8.1355 3.32959C8.22705 3.42114 8.34698 3.46692 8.46692 3.46692C8.58685 3.46692 8.70679 3.42114 8.79834 3.32959C8.98145 3.14648 8.98145 2.84967 8.79834 2.66656L7.15955 1.02795C6.97662 0.844849 6.67981 0.844849 6.4967 1.02795C6.3136 1.21106 6.3136 1.50769 6.4967 1.6908L8.1355 3.32959Z" fill="#5D5FEF"/>
<path d="M12 20.7202C11.7411 20.7202 11.5312 20.9301 11.5312 21.189V23.5312C11.5312 23.7902 11.7411 24 12 24C12.2589 24 12.4688 23.7902 12.4688 23.5312V21.189C12.4688 20.9301 12.2589 20.7202 12 20.7202Z" fill="#5D5FEF"/>
<path d="M15.8646 20.6674C15.6815 20.4843 15.3849 20.4843 15.2018 20.6674C15.0187 20.8505 15.0187 21.1473 15.2018 21.3304L16.8404 22.969C16.9319 23.0605 17.0519 23.1063 17.1718 23.1063C17.2919 23.1063 17.4119 23.0605 17.5034 22.969C17.6863 22.7859 17.6863 22.4891 17.5034 22.306L15.8646 20.6674Z" fill="#5D5FEF"/>
<path d="M8.1355 20.6705L6.4967 22.3093C6.3136 22.4924 6.3136 22.7891 6.4967 22.9722C6.58826 23.0637 6.70819 23.1095 6.82812 23.1095C6.94806 23.1095 7.06799 23.0637 7.15955 22.9722L8.79834 21.3336C8.98145 21.1505 8.98145 20.8536 8.79834 20.6705C8.61523 20.4874 8.3186 20.4874 8.1355 20.6705Z" fill="#5D5FEF"/>
<path d="M16.3086 11.7025C16.3086 10.4741 15.3094 9.47485 14.0809 9.47485H13.064C12.8052 9.47485 12.5952 9.68469 12.5952 9.9436V14.0686C12.5952 14.3273 12.8052 14.5374 13.064 14.5374H14.0809C15.3092 14.5374 16.3086 13.538 16.3086 12.3095V11.7025ZM15.3711 12.3095C15.3711 13.0211 14.7923 13.5999 14.0809 13.5999H13.5327V10.4124H14.0809C14.7923 10.4124 15.3711 10.991 15.3711 11.7025V12.3095Z" fill="#5D5FEF"/>
<path d="M8.11246 12.7405L7.71603 13.919C7.63345 14.1644 7.76529 14.4302 8.01065 14.5128C8.25638 14.5954 8.52188 14.4634 8.60446 14.218L8.89707 13.3484H10.1993L10.4919 14.218C10.5577 14.4137 10.7402 14.5373 10.9361 14.5373C10.9858 14.5373 11.0361 14.5295 11.0855 14.5128C11.3309 14.4302 11.4629 14.1644 11.3803 13.919L9.99241 9.79401C9.92832 9.60321 9.74942 9.47485 9.54819 9.47485C9.34696 9.47485 9.16806 9.60321 9.10398 9.79401L8.11282 12.7396C8.11264 12.74 8.11246 12.7402 8.11246 12.7405V12.7405ZM9.54819 11.4134L9.88382 12.4109H9.21256L9.54819 11.4134Z" fill="#5D5FEF"/>
<path d="M15.233 16.3561C15.1459 16.4432 15.0957 16.5643 15.0957 16.6875C15.0957 16.8113 15.1459 16.9318 15.233 17.0189C15.3204 17.1061 15.4412 17.1562 15.5645 17.1562C15.6879 17.1562 15.8087 17.1061 15.8959 17.0189C15.983 16.9318 16.0332 16.8107 16.0332 16.6875C16.0332 16.5643 15.983 16.4432 15.8959 16.3561C15.8087 16.2689 15.6879 16.2188 15.5645 16.2188C15.4412 16.2188 15.3202 16.2689 15.233 16.3561Z" fill="#5D5FEF"/>
</svg>
