<svg width="72" height="60" viewBox="0 0 72 60" fill="none" xmlns="http://www.w3.org/2000/svg">
<g clip-path="url(#clip0)">
<g clip-path="url(#clip1)">
<path d="M7.9596 14.0853V54.3201C6.59833 55.3362 5.79545 56.9345 5.79297 58.6335V63.9169C5.79297 64.515 6.27797 65 6.87604 65H30.7085C31.3071 65 31.7921 64.515 31.7921 63.9169V60.6667H36.1249C36.7234 60.6667 37.2084 60.1817 37.2084 59.5837V52.0007H63.2075C63.8056 52.0007 64.2906 51.5157 64.2906 50.9171V30.3349H65.3742C65.9722 30.3349 66.4572 29.8499 66.4572 29.2513V23.9684C66.4548 22.2694 65.6519 20.671 64.2906 19.6544V5.41881C64.2906 4.82074 63.8056 4.33574 63.2075 4.33574H59.5785C58.3883 0.955116 54.6828 -0.820244 51.3027 0.369942C49.4485 1.02306 47.99 2.48153 47.3374 4.33574H36.1249C35.5268 4.33574 35.0418 4.82074 35.0418 5.41881V13.0018H9.04267C8.4446 13.0018 7.9596 13.4868 7.9596 14.0853ZM29.6254 62.8334H27.4588V59.5837H25.2922V62.8334H12.2924V59.5837H10.1262V62.8334H7.9596V58.6335C7.95911 57.1423 8.97374 55.842 10.4208 55.48L15.8044 54.1346C16.2869 54.0141 16.6256 53.5812 16.6256 53.0838V50.9171C16.6281 50.5045 16.3955 50.1267 16.0266 49.9422C15.065 49.4661 14.457 48.4852 14.459 47.4115V41.1675C14.459 38.7743 16.399 36.8343 18.7923 36.8343C21.1855 36.8343 23.1255 38.7743 23.1255 41.1675V47.4115C23.13 48.4872 22.5215 49.4711 21.558 49.9476C21.1905 50.1311 20.9589 50.5065 20.9589 50.9171V53.0838C20.9589 53.5812 21.2976 54.0141 21.7801 54.1346L27.1642 55.48C28.6108 55.842 29.6254 57.1423 29.6254 58.6335V62.8334ZM59.9573 12.7464V6.50237H62.124V18.6557L57.7912 17.5726V16.8684C59.1515 15.9381 59.9633 14.3943 59.9573 12.7464ZM49.1247 6.50237C49.1247 4.10911 51.0647 2.16911 53.4579 2.16911C55.8507 2.16911 57.7907 4.10911 57.7907 6.50237V12.7464C57.7952 13.8215 57.1872 14.8054 56.2231 15.2825C55.8561 15.466 55.6241 15.8414 55.6241 16.252V18.4186C55.6246 18.9155 55.9628 19.3489 56.4453 19.4694L61.8294 20.8149C63.276 21.1769 64.2911 22.4767 64.2906 23.9684V28.1682H62.124V24.918H59.9573V28.1682H46.958V24.918H44.7914V28.1682H42.6248V23.9684C42.6243 22.4767 43.6394 21.1764 45.086 20.8149L50.4701 19.4694C50.9526 19.3489 51.2908 18.9155 51.2913 18.4186V16.252C51.2913 15.8414 51.0592 15.466 50.6922 15.2825C49.7282 14.8054 49.1202 13.8215 49.1247 12.7464V6.50237ZM37.2084 6.50237H46.958V12.7464C46.9526 14.3943 47.7639 15.9381 49.1247 16.8684V17.5726L44.5618 18.7132C42.1487 19.3137 40.4556 21.4814 40.4581 23.9684V29.2513C40.4581 29.8499 40.9431 30.3349 41.5417 30.3349H62.124V49.8341H37.2084V47.0327L40.1407 44.0998C40.5637 43.6768 40.5637 42.9915 40.1407 42.5685L34.407 36.8343L36.891 34.3502C37.0944 34.1474 37.2084 33.8717 37.2084 33.5846V6.50237ZM35.0418 15.1684V33.1363L32.1095 36.0686C31.6865 36.4916 31.6865 37.1774 32.1095 37.6004L37.8432 43.3342L35.3592 45.8182C35.1558 46.021 35.0418 46.2967 35.0418 46.5839V58.5001H31.7812C31.7266 56.0657 30.0509 53.9685 27.6884 53.3783L23.1255 52.2377V51.5336C24.4848 50.6047 25.2961 49.0634 25.2922 47.417V41.1675C25.2922 37.5776 22.3822 34.6676 18.7923 34.6676C15.2029 34.6676 12.2924 37.5776 12.2924 41.1675V47.4115C12.2869 49.0599 13.0987 50.6037 14.459 51.5336V52.2377L10.1262 53.3208V15.1684H35.0418Z" fill="white"/>
<path d="M14.459 17.335H16.6256V19.5017H14.459V17.335Z" fill="white"/>
<path d="M18.793 17.335H32.8758V19.5017H18.793V17.335Z" fill="white"/>
<path d="M12.293 21.6683H32.8757V23.835H12.293V21.6683Z" fill="white"/>
<path d="M12.293 26.0016H32.8757V28.1682H12.293V26.0016Z" fill="white"/>
<path d="M12.293 30.3348H28.5425V32.5015H12.293V30.3348Z" fill="white"/>
<path d="M44.791 32.501H46.9576V34.6676H44.791V32.501Z" fill="white"/>
<path d="M49.125 32.501H59.9577V34.6676H49.125V32.501Z" fill="white"/>
<path d="M42.625 36.8343H59.9576V39.0009H42.625V36.8343Z" fill="white"/>
<path d="M42.625 41.1675H59.9576V43.3342H42.625V41.1675Z" fill="white"/>
<path d="M42.625 45.5008H55.6248V47.6674H42.625V45.5008Z" fill="white"/>
<path d="M66.4573 52.0007C66.4573 53.1968 65.4873 54.1673 64.2906 54.1673H54.541V56.3335H64.2906C66.6839 56.3335 68.6239 54.3935 68.6239 52.0007V39.0009H66.4573V52.0007Z" fill="white"/>
<path d="M66.457 34.6676H68.6237V36.8343H66.457V34.6676Z" fill="white"/>
<path d="M5.79359 13.0018C5.79359 11.8052 6.76359 10.8352 7.96022 10.8352H17.7098V8.66852H7.96022C5.56696 8.66852 3.62695 10.6085 3.62695 13.0018V35.7512H5.79359V13.0018Z" fill="white"/>
<path d="M19.877 8.66901H22.0436V10.8356H19.877V8.66901Z" fill="white"/>
</g>
</g>
<defs>
<clipPath id="clip0">
<rect width="72" height="59.2942" fill="white" transform="translate(0 0.35289)"/>
</clipPath>
<clipPath id="clip1">
<rect width="65" height="65" fill="white" transform="translate(3.5)"/>
</clipPath>
</defs>
</svg>
