<svg width="89" height="74" viewBox="0 0 89 74" fill="none" xmlns="http://www.w3.org/2000/svg">
<g clip-path="url(#clip0)">
<g clip-path="url(#clip1)">
<path d="M76.7754 65.3564L71.7789 60.3236C71.3384 59.8799 70.6242 59.8799 70.1839 60.3236C69.7434 60.7673 69.7434 61.4867 70.1839 61.9303L75.1803 66.963C75.4005 67.1848 75.6892 67.2959 75.9778 67.2959C76.2664 67.2959 76.5552 67.185 76.7754 66.963C77.216 66.5195 77.216 65.8001 76.7754 65.3564Z" fill="white"/>
<path d="M29.2123 51.9891C29.2123 52.6166 29.7173 53.1253 30.3402 53.1253C30.9631 53.1253 31.4682 52.6166 31.4682 51.9891V50.2367C33.1304 49.5989 34.3149 47.9777 34.3149 46.0821C34.3149 44.0334 32.9313 42.3051 31.0562 41.7927C31.4713 41.1153 31.7116 40.3181 31.7116 39.4652C31.7116 37.0196 29.7405 35.0292 27.3144 35.0209C27.6736 34.3779 27.8797 33.637 27.8797 32.8482C27.8797 30.3974 25.9002 28.4035 23.4672 28.4035H21.2969C21.6561 27.7606 21.862 27.0198 21.862 26.2312C21.862 23.7804 19.8825 21.7865 17.4495 21.7865H17.3947C16.7718 21.7865 16.2668 22.2952 16.2668 22.9227C16.2668 23.5501 16.7718 24.0588 17.3947 24.0588H17.4495C18.6386 24.0588 19.6061 25.0333 19.6061 26.2312C19.6061 27.429 18.6386 28.4035 17.4495 28.4035H12.2876C11.0985 28.4035 10.131 27.429 10.131 26.2312C10.131 25.1173 10.9925 24.1673 12.0921 24.0684C12.7125 24.0125 13.1706 23.4606 13.1152 22.8355C13.0599 22.2105 12.5123 21.7495 11.8914 21.805C11.2979 21.8584 10.7427 22.0266 10.2452 22.2858L2.8219 14.8083C2.3814 14.3646 1.6672 14.3646 1.22685 14.8083C0.786361 15.252 0.786361 15.9714 1.22685 16.415L8.57479 23.8167C8.13099 24.5121 7.87532 25.3407 7.87532 26.2312C7.87532 28.682 9.85476 30.6759 12.2878 30.6759H12.8451C12.486 31.3186 12.2801 32.0596 12.2801 32.8482C12.2801 35.299 14.2596 37.2929 16.6926 37.2929H16.7545C16.3954 37.9358 16.1895 38.6766 16.1895 39.4652C16.1895 41.916 18.169 43.9099 20.602 43.9099H22.0454C21.6863 44.5527 21.4804 45.2936 21.4804 46.0823C21.4804 48.5331 23.4599 50.527 25.8929 50.527H29.2126V51.9891H29.2123ZM14.5357 32.8482C14.5357 31.6504 15.5031 30.6759 16.6923 30.6759H23.4671C24.6562 30.6759 25.6237 31.6504 25.6237 32.8482C25.6237 34.046 24.6562 35.0206 23.4671 35.0206H16.6923C15.5031 35.0206 14.5357 34.046 14.5357 32.8482ZM18.4451 39.4652C18.4451 38.2674 19.4125 37.2929 20.6017 37.2929H27.2992C28.4883 37.2929 29.4558 38.2674 29.4558 39.4652C29.4558 40.6631 28.4883 41.6376 27.2992 41.6376H20.6017C19.4124 41.6376 18.4451 40.6631 18.4451 39.4652ZM23.736 46.0823C23.736 44.8845 24.7034 43.9099 25.8926 43.9099H29.9024C31.0916 43.9099 32.059 44.8845 32.059 46.0823C32.059 47.2801 31.0916 48.2546 29.9024 48.2546H25.8926C24.7033 48.2545 23.736 47.2801 23.736 46.0823Z" fill="white"/>
<path d="M69.881 49.4193C69.8911 48.0495 69.367 46.7616 68.4052 45.7929L61.8649 39.2047C60.6897 38.0211 59.2434 37.0922 57.6822 36.5182L48.8717 33.28L45.6571 24.4053C45.0874 22.8327 44.1652 21.3756 42.9901 20.1919L37.5535 14.7156C35.5883 12.7361 32.3907 12.7361 30.4256 14.7156C29.8696 15.2756 29.4619 15.9511 29.217 16.6814L15.4958 2.08609C15.0674 1.63041 14.3535 1.61086 13.9012 2.04231C13.4489 2.47375 13.4295 3.19286 13.8578 3.64854L41.2278 32.7622C41.348 32.89 41.496 32.988 41.6602 33.0483L56.9092 38.653C58.1636 39.1141 59.3257 39.8605 60.27 40.8117L66.8103 47.3998C67.3415 47.9349 67.6308 48.6461 67.6253 49.4028C67.6197 50.1593 67.32 50.8663 66.781 51.3933C65.6946 52.4556 63.941 52.4413 62.8714 51.3614L57.4153 45.8554C57.0927 45.53 56.6074 45.4323 56.1858 45.6081C55.7641 45.7839 55.4891 46.1983 55.4891 46.658V66.1464C55.4891 67.3442 54.5216 68.3188 53.3325 68.3188C52.1433 68.3188 51.1758 67.3442 51.1758 66.1464V59.2891C51.1758 58.6616 50.6708 58.1529 50.0479 58.1529C49.425 58.1529 48.92 58.6616 48.92 59.2891V64.3754C48.92 64.9703 48.6858 65.5255 48.2607 65.9387C47.8358 66.3517 47.2755 66.5674 46.6837 66.5462C45.5385 66.5051 44.6068 65.4958 44.6068 64.296V57.0175C44.6068 56.3901 44.1018 55.8814 43.4789 55.8814C42.8559 55.8814 42.3509 56.3901 42.3509 57.0175V62.5996C42.3509 63.7974 41.3835 64.7719 40.1943 64.7719C39.0052 64.7719 38.0377 63.7974 38.0377 62.5996V55.3743C38.0377 54.7469 37.5327 54.2382 36.9098 54.2382C36.2869 54.2382 35.7819 54.7469 35.7819 55.3743V59.0435C35.7819 59.6384 35.5477 60.1936 35.1227 60.6069C34.698 61.02 34.137 61.2357 33.5457 61.2145C32.4005 61.1735 31.4688 60.1641 31.4688 58.9643V57.432C31.4688 56.8045 30.9638 56.2958 30.3409 56.2958C29.718 56.2958 29.213 56.8045 29.213 57.432V58.9643C29.213 61.3733 31.1208 63.4016 33.4657 63.4854C34.2948 63.5154 35.0929 63.3171 35.7931 62.9174C35.9554 65.2207 37.8675 67.0443 40.1945 67.0443C41.1559 67.0443 42.0462 66.7331 42.7719 66.2052C43.4599 67.6928 44.919 68.7567 46.6037 68.817C47.5895 68.8532 48.535 68.5648 49.3215 67.9982C50.0201 69.527 51.5553 70.591 53.3325 70.591C53.8354 70.591 54.3183 70.5046 54.7688 70.3478L63.3194 78.9609C63.5396 79.1826 63.8284 79.2937 64.117 79.2937C64.4056 79.2937 64.6943 79.1828 64.9145 78.9609C65.355 78.5172 65.355 77.7977 64.9145 77.3542L56.6696 69.0491C57.3387 68.2697 57.7449 67.2552 57.7449 66.1463V49.4041L66.3632 58.0819C66.5834 58.3037 66.8721 58.4147 67.1607 58.4147C67.4493 58.4147 67.7381 58.3038 67.9582 58.0819C68.3987 57.6382 68.3987 56.9188 67.9582 56.4752L65.8465 54.348C66.7629 54.1629 67.6375 53.7225 68.3523 53.0235C69.3282 52.0691 69.8711 50.7892 69.881 49.4193ZM31.2483 18.7982C31.0895 17.8953 31.3784 16.9697 32.0209 16.3226C33.1066 15.2293 34.8729 15.2291 35.9586 16.3226L41.3952 21.7989C42.3393 22.7501 43.0805 23.9207 43.5381 25.1844L46.1018 32.2621L42.6831 31.0056C42.683 31.0055 31.2514 18.8152 31.2483 18.7982Z" fill="white"/>
</g>
</g>
<defs>
<clipPath id="clip0">
<rect width="88" height="73" fill="white" transform="translate(0.5 0.5)"/>
</clipPath>
<clipPath id="clip1">
<rect width="77" height="77.5624" fill="white" transform="translate(0.5 1.73115)"/>
</clipPath>
</defs>
</svg>
