<svg width="125" height="125" viewBox="0 0 125 125" fill="none" xmlns="http://www.w3.org/2000/svg">
<g clip-path="url(#clip0)">
<path d="M42.4465 11.5703H21.4131C20.4016 11.5703 19.582 12.3901 19.582 13.4014C19.582 14.4126 20.4016 15.2324 21.4131 15.2324H42.4465C43.458 15.2324 44.2776 14.4126 44.2776 13.4014C44.2776 12.3901 43.4578 11.5703 42.4465 11.5703Z" fill="#5D5FEF"/>
<path d="M42.4465 20.0195H21.4131C20.4016 20.0195 19.582 20.8394 19.582 21.8506C19.582 22.8618 20.4016 23.6816 21.4131 23.6816H42.4465C43.458 23.6816 44.2776 22.8618 44.2776 21.8506C44.2776 20.8394 43.4578 20.0195 42.4465 20.0195Z" fill="#5D5FEF"/>
<path d="M116.237 110.472L77.4321 74.514C79.2019 72.5528 80.8723 70.5719 82.427 68.5821C85.4267 70.6837 89.5952 70.4068 92.2829 67.7377C95.3069 64.7345 95.3237 59.8563 92.3201 56.8319L76.1609 40.5616C73.1645 37.5448 68.272 37.5282 65.2549 40.5245C62.8889 42.8744 62.3689 46.3902 63.6997 49.2533C56.2986 54.9156 48.7514 62.3441 42.8118 69.9979C40.0132 68.6678 36.4805 69.1029 34.0701 71.4969C31.0464 74.5001 31.0288 79.3783 34.0329 82.4027L50.1921 98.6727C53.1924 101.694 58.0735 101.714 61.0979 98.7098C63.7842 96.0416 64.0898 91.8717 62.0098 88.8597C64.0146 87.315 66.0119 85.6542 67.9897 83.8932L103.681 122.942C106.106 125.595 110.25 125.698 112.803 123.162L116.395 119.595C118.943 117.064 118.881 112.922 116.237 110.472ZM67.8357 43.1229C69.4238 41.5458 71.9927 41.5619 73.5627 43.1424L89.7219 59.4127C91.2988 61.0006 91.2908 63.5621 89.7024 65.1393C88.1179 66.713 85.5488 66.704 83.9753 65.1197L67.8161 48.8497C66.2427 47.2655 66.2515 44.6964 67.8357 43.1229ZM65.936 52.1534L79.7471 66.0592C74.1106 73.3248 66.8235 80.5658 59.5054 86.1629L45.6943 72.2574C51.1863 65.1774 58.4431 57.8846 65.936 52.1534ZM58.5173 96.1119C56.9309 97.6876 54.3679 97.6805 52.7905 96.0924L36.6313 79.8224C35.0542 78.2345 35.0627 75.6727 36.6509 74.0956C38.2373 72.5199 40.8003 72.527 42.3777 74.1151L58.5371 90.3851C60.1106 91.9691 60.1018 94.5382 58.5173 96.1119ZM113.814 116.997L110.222 120.564C109.118 121.661 107.378 121.559 106.384 120.471L70.6855 81.4144C71.4043 80.734 72.1208 80.0453 72.832 79.339C73.5476 78.6283 74.2456 77.912 74.9353 77.1932L113.748 113.158C114.854 114.183 114.892 115.926 113.814 116.997Z" fill="#5D5FEF"/>
<path d="M94.4197 121.252C94.0789 121.309 93.7288 121.337 93.3792 121.337H16.719C13.2327 121.337 10.3965 118.501 10.3965 115.015V9.98462C10.3965 6.49854 13.2327 3.66211 16.719 3.66211H76.3899C76.6365 3.66211 76.8792 3.68677 77.1174 3.72681V16.2617C77.1174 21.7673 81.5967 26.2463 87.1021 26.2463H99.637C99.677 26.4849 99.7017 26.7273 99.7017 26.9739V90.8704C99.7017 91.8816 100.521 92.7014 101.533 92.7014C102.544 92.7014 103.364 91.8816 103.364 90.8704V26.9739C103.364 24.8347 102.531 22.8237 101.019 21.3113L82.0525 2.3457C80.5403 0.833008 78.5293 0 76.3899 0H16.719C11.2136 0 6.73438 4.47925 6.73438 9.98462V115.014C6.73438 120.52 11.2136 124.999 16.719 124.999H93.3792C93.928 124.999 94.479 124.954 95.0168 124.865C96.0144 124.7 96.6897 123.758 96.5247 122.76C96.3599 121.762 95.4167 121.086 94.4197 121.252ZM97.1123 22.5842H87.1021C83.6157 22.5842 80.7795 19.7478 80.7795 16.2617V6.25171L97.1123 22.5842Z" fill="#5D5FEF"/>
</g>
<defs>
<clipPath id="clip0">
<rect width="125" height="125" fill="white"/>
</clipPath>
</defs>
</svg>
