<svg width="22" height="24" viewBox="0 0 22 24" fill="none" xmlns="http://www.w3.org/2000/svg">
<path d="M10.9963 6.54869C12.8046 6.54869 14.2706 5.08271 14.2706 3.27434C14.2706 1.46597 12.8046 0 10.9963 0C9.1879 0 7.72192 1.46597 7.72192 3.27434C7.72192 5.08271 9.1879 6.54869 10.9963 6.54869Z" fill="#5D5FEF"/>
<path d="M21.3265 12.166H17.1049L15.8358 7.52977L12.2622 7.04102L11.0534 8.48949L9.8037 7.04102L6.16356 7.5058L4.81175 12.166H0.673584V14.8464H2.34633V23.9997H19.6538V14.8464H21.3265V12.166ZM15.139 12.166H14.4531L14.3757 9.44767L15.139 12.166ZM7.39395 9.57295V12.166H6.62912L7.39395 9.57295Z" fill="#5D5FEF"/>
</svg>
