<svg width="42" height="48" viewBox="0 0 42 48" fill="none" xmlns="http://www.w3.org/2000/svg">
<path d="M20.6452 13.0974C24.2619 13.0974 27.1939 10.1654 27.1939 6.54869C27.1939 2.93195 24.2619 0 20.6452 0C17.0284 0 14.0965 2.93195 14.0965 6.54869C14.0965 10.1654 17.0284 13.0974 20.6452 13.0974Z" fill="#9CA3AF"/>
<path d="M41.3059 24.3324H32.8625L30.3244 15.06L23.1772 14.0825L20.7597 16.9795L18.2602 14.0825L10.98 15.0121L8.27634 24.3324H0V29.6933H3.34549V47.9999H37.9604V29.6933H41.3059V24.3324ZM28.9308 24.3324H27.5589L27.4043 18.8958L28.9308 24.3324ZM13.4407 19.1464V24.3324H11.9111L13.4407 19.1464Z" fill="#9CA3AF"/>
</svg>
