<svg width="24" height="24" viewBox="0 0 24 24" fill="none" xmlns="http://www.w3.org/2000/svg">
<path d="M11.9963 6.54869C13.8046 6.54869 15.2706 5.08271 15.2706 3.27434C15.2706 1.46597 13.8046 0 11.9963 0C10.1879 0 8.72192 1.46597 8.72192 3.27434C8.72192 5.08271 10.1879 6.54869 11.9963 6.54869Z" fill="#FDFDFD"/>
<path d="M22.3265 12.1665H18.1049L16.8358 7.53026L13.2622 7.0415L12.0534 8.48998L10.8037 7.0415L7.16356 7.50629L5.81175 12.1665H1.67358V14.8469H3.34633V24.0002H20.6538V14.8469H22.3265V12.1665ZM16.139 12.1665H15.4531L15.3757 9.44815L16.139 12.1665ZM8.39395 9.57344V12.1665H7.62912L8.39395 9.57344Z" fill="#FDFDFD"/>
</svg>
