<svg width="143" height="143" viewBox="0 0 143 143" fill="none" xmlns="http://www.w3.org/2000/svg">
<path d="M115.27 94.4518V79.5653L108.988 82.0095L108.97 81.968L108.82 81.6962C106.412 77.9481 102.519 75.3403 98.1352 74.5455L83.0183 71.7949V70.6015C88.6716 67.3188 92.8113 61.7185 94.1014 55.0976C98.2896 54.2314 101.448 50.5156 101.448 46.074V23.3204C101.448 16.8907 97.2368 11.2835 91.1273 9.459L89.9755 8.30715C84.6171 2.94874 77.494 0 69.9172 0C54.2773 0 41.5517 12.7233 41.5517 28.3655V46.074C41.5517 50.5156 44.7101 54.2314 48.8982 55.0976C50.1906 61.7185 54.328 67.3211 59.9813 70.6015V71.7949L44.8667 74.5432C40.4874 75.338 36.5964 77.9411 34.1867 81.687L34.0485 82.0233L27.7295 79.5653V94.4518C23.9191 94.4518 20.8184 97.5526 20.8184 101.363V110.578C20.8184 114.388 23.9191 117.489 27.7295 117.489V125.976L71.4998 143L115.27 125.976V117.489C119.08 117.489 122.181 114.388 122.181 110.578V101.363C122.181 97.5526 119.08 94.4518 115.27 94.4518ZM87.3354 77.2639L97.3105 79.0769C100.248 79.6113 102.849 81.3069 104.583 83.7211L82.2949 92.3877L87.3354 77.2639ZM64.7845 72.714C66.9108 73.3637 69.1638 73.7185 71.4998 73.7185C73.8358 73.7185 76.0888 73.3637 78.2151 72.714L71.4998 77.7499L64.7845 72.714ZM67.9936 80.8784L63.2917 85.5779L60.2416 76.4299L61.7091 76.165L67.9936 80.8784ZM81.2905 76.1673L82.758 76.4322L79.7079 85.5802L75.006 80.8807L81.2905 76.1673ZM94.5368 50.041V42.1071C95.9075 42.9064 96.8405 44.3762 96.8405 46.074C96.8405 47.7719 95.9075 49.2416 94.5368 50.041ZM48.4628 50.041C47.0921 49.2416 46.1591 47.7719 46.1591 46.074C46.1591 44.3762 47.0921 42.9064 48.4628 42.1071V50.041ZM48.4628 34.5555V37.1864C47.6427 37.4006 46.8732 37.7231 46.1591 38.1401V28.3655C46.1591 15.2666 56.816 4.6074 69.9172 4.6074C76.2616 4.6074 82.2304 7.07928 86.7181 11.5669L88.7499 13.6011L89.3696 13.7531C93.7697 14.852 96.8405 18.7867 96.8405 23.3204V38.1401C96.1264 37.7231 95.3569 37.3983 94.5368 37.1864V34.5555H87.2318C80.9888 34.5555 75.0222 31.5745 71.2786 26.5824L69.4472 24.1359L64.8698 28.7156C61.1009 32.4822 56.0926 34.5555 50.7665 34.5555H48.4628ZM53.0702 50.6814V39.057C58.758 38.5294 64.0358 36.0621 68.1272 31.9731L69.0233 31.0769C73.6422 36.175 80.2953 39.1629 87.2318 39.1629H89.9294V50.6814C89.9294 60.8431 81.6614 69.1111 71.4998 69.1111C61.3382 69.1111 53.0702 60.8431 53.0702 50.6814ZM45.6891 79.0769L55.6642 77.2639L60.7047 92.3877L38.4117 83.7188C40.1464 81.3022 42.7519 79.6113 45.6891 79.0769ZM25.4258 110.578V101.363C25.4258 100.091 26.4601 99.0592 27.7295 99.0592C31.5398 99.0592 34.6406 102.16 34.6406 105.97C34.6406 109.781 31.5398 112.881 27.7295 112.881C26.4601 112.881 25.4258 111.849 25.4258 110.578ZM69.1961 137.158L32.3369 122.826V116.512C36.3983 114.729 39.248 110.681 39.248 105.97C39.248 101.259 36.3983 97.2116 32.3369 95.4285V86.3013L69.1961 100.635V137.158ZM62.3564 93.0327L71.4998 83.887L80.6432 93.0304L71.4998 96.5873L62.3564 93.0327ZM110.663 122.824L73.8035 137.156V100.635L110.663 86.3013V95.4285C106.601 97.2116 103.752 101.259 103.752 105.97C103.752 110.681 106.601 114.729 110.663 116.512V122.824ZM117.574 110.578C117.574 111.849 116.539 112.881 115.27 112.881C111.46 112.881 108.359 109.781 108.359 105.97C108.359 102.16 111.46 99.0592 115.27 99.0592C116.539 99.0592 117.574 100.091 117.574 101.363V110.578Z" fill="#5D5FEF"/>
</svg>
