<svg width="144" height="143" viewBox="0 0 144 143" fill="none" xmlns="http://www.w3.org/2000/svg">
<path d="M87.1539 25.0734H123.589C124.747 25.0734 125.685 24.1352 125.685 22.9781C125.685 21.8209 124.747 20.8828 123.589 20.8828H87.1539C85.9964 20.8828 85.0586 21.8209 85.0586 22.9781C85.0586 24.1352 85.9964 25.0734 87.1539 25.0734Z" fill="#5D5FEF"/>
<path d="M87.1539 36.3771H123.589C124.747 36.3771 125.685 35.4389 125.685 34.2818C125.685 33.1246 124.747 32.1865 123.589 32.1865H87.1539C85.9964 32.1865 85.0586 33.1246 85.0586 34.2818C85.0586 35.4389 85.9964 36.3771 87.1539 36.3771Z" fill="#5D5FEF"/>
<path d="M87.1539 47.6798H99.8286C100.986 47.6798 101.924 46.7417 101.924 45.5845C101.924 44.4274 100.986 43.4893 99.8286 43.4893H87.1539C85.9964 43.4893 85.0586 44.4274 85.0586 45.5845C85.0586 46.7417 85.9964 47.6798 87.1539 47.6798Z" fill="#5D5FEF"/>
<path d="M138.114 0H43.0961C40.3815 0 38.173 2.20842 38.173 4.92305V7.63992C38.173 10.3546 40.3815 12.563 43.0961 12.563H43.6749V25.2254C43.6749 26.3825 44.6128 27.3207 45.7702 27.3207C46.9276 27.3207 47.8655 26.3825 47.8655 25.2254V12.563H133.345V63.0037C133.345 63.5593 132.893 64.0111 132.337 64.0111H100.091L104.328 52.8209C104.737 51.7387 104.192 50.5293 103.11 50.1197C102.028 49.7099 100.818 50.2549 100.408 51.3375L95.6106 64.0111H75.0786C73.9212 64.0111 72.9833 64.9492 72.9833 66.1064C72.9833 67.2635 73.9212 68.2016 75.0786 68.2016H94.024L90.1724 78.376C89.013 78.4782 87.8793 78.956 86.9652 79.8128L83.1387 83.3985C83.1222 83.4141 83.106 83.4298 83.0898 83.4457C81.9407 84.5948 81.2183 86.0553 81.0004 87.6687C80.8814 88.549 80.9314 88.0802 78.7232 94.7412C77.9402 95.2468 77.3177 96.0109 76.9981 96.9608L74.4833 104.453C71.1143 100.494 66.7808 97.5125 61.8661 95.7874C64.8925 94.5884 67.4216 92.3721 69.0504 89.4114C71.268 85.3789 71.4471 80.6744 69.5446 76.5095L69.4725 76.3528C66.4748 69.8943 67.6529 64.3732 67.3808 59.0179C67.3808 54.9648 66.4684 51.1213 64.8408 47.6797H73.3837C75.9756 47.6797 78.0843 45.571 78.0843 42.9793V25.5835C78.0843 22.9918 75.9756 20.8831 73.3837 20.8831H60.8771C58.2854 20.8831 56.1767 22.9918 56.1767 25.5835V37.333C51.8261 34.2328 46.5069 32.4077 40.7698 32.4077C26.0967 32.4077 14.159 44.3452 14.159 59.0176L14.1557 66.6662C14.1534 72.2902 12.035 76.3936 11.9978 76.5039C10.0925 80.6749 10.2716 85.3798 12.4895 89.4122C14.1191 92.3749 16.6504 94.592 19.6793 95.7908C7.96315 99.8975 0 110.948 0 123.58V135.733C0 139.681 3.21219 142.894 7.1608 142.894H76.1413C80.8249 142.894 84.8155 139.546 85.6304 134.934L91.6455 100.872C91.7799 100.111 91.7011 99.3608 91.4552 98.6811L91.6798 97.4094C91.9159 96.0735 92.5484 94.8613 93.5094 93.9042C93.5128 93.9011 93.5315 93.8821 93.5349 93.8788C93.5424 93.8709 93.5505 93.8631 93.558 93.8553L95.1301 92.2188C98.2196 89.0024 98.5724 83.489 94.162 79.6725L98.5046 68.2022H132.337C135.203 68.2022 137.535 65.8703 137.535 63.0042V12.563H138.114C140.828 12.563 143.037 10.3546 143.037 7.63992V4.92305C143.037 2.20842 140.829 0 138.114 0ZM65.6683 78.1114L65.7298 78.2452C67.0791 81.1987 66.9512 84.5327 65.3783 87.3924C63.8401 90.1886 61.1707 92.0447 58.0471 92.4964L50.6664 88.818V84.5814C51.8725 83.8371 53.0051 82.9557 54.0376 81.9371C56.1387 79.8645 57.6912 77.3803 58.6288 74.666C59.0288 74.6154 61.4493 74.9951 63.9723 73.2227C64.3821 74.921 64.9498 76.5634 65.6683 78.1114ZM55.3372 105.128C56.0868 106.058 56.5145 106.211 56.3874 106.663C55.4208 110.105 50.9738 115.571 46.6692 120.227C48.1496 116.799 49.7085 112.864 51.0511 107.758C52.229 103.28 52.4469 98.604 51.7107 94.0207L56.2731 96.2945C56.446 96.3808 56.515 96.5213 56.5427 96.6244C56.5556 96.6722 56.5634 96.7322 56.5589 96.7982C56.5581 96.8066 56.5572 96.8149 56.5567 96.8236C56.5483 96.8929 56.5254 96.9683 56.4745 97.0451L54.9221 99.3902C53.7409 101.173 53.9119 103.533 55.3372 105.128ZM26.6172 99.3896L25.0645 97.0446C25.0142 96.9686 24.9913 96.894 24.9826 96.8253C24.9818 96.8152 24.9809 96.8052 24.9798 96.7948C24.9759 96.7303 24.9832 96.6711 24.9957 96.6241C25.0164 96.547 25.0606 96.449 25.1536 96.3682C25.1572 96.3654 25.1614 96.3632 25.165 96.3604C25.1941 96.3364 25.2265 96.3135 25.2653 96.2942L29.8277 94.0204C29.0916 98.6037 29.3098 103.279 30.4873 107.757C31.83 112.863 33.3888 116.799 34.8692 120.226C30.5647 115.571 26.1177 110.105 25.1511 106.662C25.0242 106.211 25.4561 106.052 26.2007 105.128C27.6271 103.533 27.7981 101.174 26.6172 99.3896ZM34.8684 90.7744C34.9189 90.6079 35.0634 89.793 35.0634 88.9088V86.5009C38.7449 87.6628 42.7354 87.6815 46.4759 86.5009V88.9088C46.4759 89.75 46.6164 90.5945 46.6709 90.7744C47.8649 94.7183 48.22 98.8244 47.7336 102.837C45.5017 103.624 43.1648 104.025 40.7695 104.025C38.3745 104.025 36.0378 103.624 33.8057 102.837C33.3193 98.8247 33.6741 94.7183 34.8684 90.7744ZM26.0646 68.7187V61.8541C26.0646 60.9204 26.8407 60.1337 27.826 60.1734C34.4147 60.4204 40.7136 57.9991 45.4322 53.3858C47.2526 51.6057 50.1245 52.0245 51.492 54.0172C52.5368 55.54 53.7272 57.0238 55.0296 58.4265C55.3166 58.7355 55.4747 59.14 55.4747 59.5655V68.7187C55.3462 76.6992 48.7525 83.1887 40.7695 83.1887C32.7865 83.1887 26.1931 76.6992 26.0646 68.7187ZM34.7566 107.489C36.7128 107.97 38.7237 108.216 40.7695 108.216C42.8153 108.216 44.8259 107.97 46.7821 107.489C45.2322 113.134 43.3866 117.309 41.7495 121.009C41.4148 121.765 41.0869 122.508 40.7695 123.245C40.4519 122.508 40.1239 121.765 39.7892 121.008C38.1518 117.308 36.3066 113.133 34.7566 107.489ZM63.1934 66.6925C63.183 68.6964 61.6155 70.3774 59.5605 70.4673C59.7474 68.6721 59.6317 67.9443 59.6649 62.8833C61.6247 63.0238 63.1783 64.6528 63.1931 66.6444V66.6679C63.1931 66.676 63.1934 66.6844 63.1934 66.6925ZM60.367 25.5835C60.367 25.3025 60.5955 25.0737 60.8768 25.0737H73.3834C73.6647 25.0737 73.8935 25.3025 73.8935 25.5835V42.9802C73.8935 43.2612 73.6647 43.49 73.3834 43.49H62.3664C61.7482 42.6326 61.0805 41.8132 60.3673 41.0366V25.5835H60.367ZM18.3493 59.0185C18.3493 46.6558 28.4071 36.5982 40.7698 36.5982C53.1324 36.5982 63.19 46.6558 63.19 59.0196L63.1903 59.6409C62.1153 59.0579 60.8919 58.7165 59.5931 58.6841C59.4185 57.5261 58.9076 56.4446 58.101 55.5758C58.1007 55.5758 58.1007 55.5758 58.1007 55.5758C56.9375 54.3228 55.8764 53.0011 54.9472 51.6468C52.0577 47.4358 46.1178 46.8553 42.5024 50.3899C38.6142 54.1912 33.4201 56.1907 27.983 55.9862C25.8833 55.9066 23.9417 56.9176 22.7974 58.7014C22.4247 58.7399 20.532 58.4737 18.3487 59.6529L18.3493 59.0185ZM21.9744 70.4223C19.94 70.3458 18.3493 68.6827 18.3498 66.6595C18.3507 64.6648 19.9104 63.0313 21.8738 62.9045C21.907 68.0301 21.7945 68.6523 21.9744 70.4223ZM16.161 87.3924C13.0203 81.682 16.3797 78.1589 17.5732 73.194C20.0727 74.9409 22.4946 74.5699 22.8943 74.6199C23.8302 77.3521 25.3883 79.853 27.5014 81.9371C28.5342 82.9557 29.6665 83.8371 30.8726 84.5814V88.818L23.4919 92.4964C20.3683 92.0447 17.6989 90.1886 16.161 87.3924ZM81.5035 134.205C81.0431 136.811 78.7878 138.703 76.1413 138.703C73.9103 138.703 19.7078 138.703 17.9992 138.703V129.604C17.9992 128.447 17.0614 127.509 15.9039 127.509C14.7465 127.509 13.8087 128.447 13.8087 129.604V138.703H7.1608C5.52313 138.703 4.19054 137.37 4.19054 135.733V123.58C4.19054 112.524 11.3022 102.881 21.6883 99.5363L23.1231 101.703C23.2533 101.899 23.2343 102.159 23.0773 102.335C22.7854 102.81 20.2305 104.639 21.1173 107.796C23.0212 114.575 34.5289 126.314 39.366 130.688C40.1778 131.42 41.4028 131.402 42.1923 130.672C43.8247 129.162 58.2038 115.694 60.422 107.796C61.3168 104.609 58.7777 102.85 58.4617 102.335C58.3047 102.16 58.286 101.9 58.4162 101.703L59.8493 99.5382C65.1453 101.245 69.6979 104.629 72.8758 109.242L66.7671 127.442C66.3991 128.539 66.9897 129.727 68.0868 130.095C69.1842 130.463 70.3718 129.872 70.74 128.775L80.9708 98.2956C80.9817 98.2624 81.0177 98.2442 81.0507 98.2534L87.472 100.068C87.5047 100.078 87.5248 100.11 87.5189 100.143L81.5035 134.205ZM92.1076 89.3153L90.5526 90.9348C89.1929 92.2886 88.2372 93.9545 87.7514 95.7927L83.2211 94.5124C84.7381 89.8614 84.9532 89.712 85.1529 88.2299C85.2457 87.5435 85.5494 86.9219 86.0318 86.4305L89.8304 82.8708C90.2967 82.4336 91.0208 82.4403 91.4787 82.8867L92.0101 83.4046C93.6547 85.0077 93.6988 87.6592 92.1076 89.3153ZM138.847 7.63992C138.847 8.04389 138.518 8.37242 138.114 8.37242H43.0961C42.6921 8.37242 42.3636 8.04389 42.3636 7.63992V4.92305C42.3636 4.51936 42.6921 4.19054 43.0961 4.19054H138.114C138.518 4.19054 138.847 4.51908 138.847 4.92305V7.63992Z" fill="#5D5FEF"/>
</svg>
