<svg width="21" height="20" viewBox="0 0 21 20" fill="none" xmlns="http://www.w3.org/2000/svg">
<path d="M19.5129 11.1626C19.9712 10.6376 20.2004 10.0169 20.2004 9.30012C20.2004 8.65014 19.9626 8.08773 19.4886 7.61248C19.0136 7.13727 18.4512 6.8998 17.8012 6.8998H14.3389C14.3721 6.78317 14.4055 6.68317 14.4388 6.59986C14.4717 6.51654 14.5181 6.42477 14.5762 6.32478C14.6343 6.22474 14.6761 6.1497 14.701 6.09978C14.851 5.81661 14.9658 5.58312 15.045 5.39994C15.1241 5.2164 15.2029 4.9665 15.2823 4.64983C15.3616 4.33333 15.401 4.01653 15.401 3.69986C15.401 3.49995 15.3986 3.3373 15.3947 3.21239C15.3908 3.0874 15.3695 2.89984 15.3324 2.6498C15.2946 2.3999 15.2445 2.19154 15.1822 2.02495C15.1196 1.85832 15.0195 1.67067 14.8822 1.46249C14.7447 1.25392 14.5781 1.0854 14.3821 0.956159C14.1861 0.827004 13.9362 0.718689 13.6321 0.631257C13.3276 0.543738 12.9841 0.5 12.6005 0.5C12.3839 0.5 12.1965 0.579201 12.038 0.737558C11.8714 0.904191 11.7295 1.1125 11.6129 1.36241C11.4962 1.61244 11.4149 1.82912 11.369 2.01252C11.3232 2.19583 11.2711 2.45007 11.213 2.77497C11.1377 3.12514 11.0817 3.37706 11.044 3.53121C11.0065 3.68537 10.9334 3.88742 10.8252 4.13737C10.7167 4.38749 10.5877 4.58735 10.4377 4.73744C10.1627 5.01238 9.74194 5.51241 9.17515 6.23735C8.76671 6.7706 8.34593 7.27475 7.91262 7.74978C7.47923 8.22489 7.1626 8.47068 6.96265 8.48736C6.75447 8.504 6.57527 8.58942 6.42523 8.74366C6.27519 8.89782 6.2002 9.07911 6.2002 9.28738V17.2998C6.2002 17.5165 6.27931 17.7018 6.43767 17.856C6.59594 18.0103 6.78345 18.0915 7.00013 18.0999C7.29176 18.1083 7.9501 18.2914 8.97515 18.6501C9.61673 18.8664 10.1187 19.0312 10.4812 19.1436C10.8437 19.2559 11.3503 19.3768 11.9998 19.5062C12.6499 19.6353 13.2498 19.7 13.7996 19.7H14.0122H14.9622H15.4121C16.5207 19.6834 17.3412 19.3583 17.8747 18.7251C18.3579 18.15 18.5619 17.3958 18.4872 16.4625C18.8122 16.1542 19.0373 15.7627 19.1621 15.2876C19.3036 14.7796 19.3036 14.292 19.1621 13.8254C19.5454 13.3171 19.7246 12.7463 19.6994 12.1129C19.7005 11.846 19.6381 11.5294 19.5129 11.1626Z" fill="#389518"/>
<path d="M4.40004 8.50003H0.80015C0.583344 8.50003 0.395828 8.57923 0.237514 8.73759C0.0792007 8.89586 0 9.08338 0 9.30005V17.3003C0 17.5167 0.0792007 17.7043 0.237558 17.8628C0.396003 18.0209 0.583519 18.1001 0.800194 18.1001H4.40004C4.61667 18.1001 4.8041 18.0209 4.9625 17.8628C5.12081 17.7043 5.19997 17.5167 5.19997 17.3003V9.30005C5.19997 9.08338 5.12077 8.8959 4.9625 8.73759C4.80414 8.57919 4.61671 8.50003 4.40004 8.50003ZM2.96247 16.2688C2.80416 16.423 2.61669 16.5 2.40001 16.5C2.17498 16.5 1.98536 16.423 1.83129 16.2688C1.67714 16.1146 1.60008 15.9251 1.60008 15.7001C1.60008 15.4834 1.67709 15.2959 1.83129 15.1376C1.9854 14.9793 2.17498 14.9 2.40001 14.9C2.61669 14.9 2.80416 14.9793 2.96247 15.1376C3.12083 15.2958 3.20003 15.4834 3.20003 15.7001C3.20003 15.9251 3.12101 16.1146 2.96247 16.2688Z" fill="#389518"/>
</svg>
