<svg width="20" height="21" viewBox="0 0 20 21" fill="none" xmlns="http://www.w3.org/2000/svg">
<g clip-path="url(#clip0)">
<path d="M0.487123 9.348C0.0288181 9.86769 -0.200422 10.4823 -0.200422 11.1918C-0.200422 11.8353 0.0373993 12.3921 0.511421 12.8626C0.986407 13.333 1.54882 13.5681 2.1988 13.5681L5.66113 13.5681C5.62786 13.6836 5.5945 13.7826 5.56122 13.8651C5.52826 13.9475 5.48193 14.0384 5.42384 14.1374C5.36569 14.2364 5.32388 14.3107 5.29897 14.3601C5.14902 14.6405 5.03422 14.8716 4.95498 15.053C4.87587 15.2347 4.7971 15.4821 4.71768 15.7956C4.6384 16.1089 4.59899 16.4225 4.59899 16.736C4.59899 16.9339 4.6014 17.095 4.60534 17.2186C4.60924 17.3424 4.63047 17.5281 4.66764 17.7756C4.70538 18.023 4.75547 18.2293 4.81781 18.3942C4.88042 18.5591 4.9805 18.7449 5.11776 18.951C5.25532 19.1575 5.42191 19.3243 5.61792 19.4523C5.81389 19.5801 6.06379 19.6874 6.36794 19.7739C6.6724 19.8606 7.01595 19.9039 7.39952 19.9039C7.61615 19.9039 7.80349 19.8255 7.96198 19.6687C8.12861 19.5037 8.27051 19.2975 8.38705 19.0501C8.50378 18.8026 8.58508 18.5881 8.63096 18.4065C8.6768 18.225 8.72894 17.9733 8.78704 17.6517C8.8623 17.305 8.9183 17.0556 8.95604 16.903C8.99347 16.7504 9.06659 16.5504 9.17482 16.3029C9.28326 16.0553 9.41229 15.8574 9.56233 15.7088C9.83727 15.4367 10.2581 14.9416 10.8249 14.2239C11.2333 13.696 11.6541 13.1969 12.0874 12.7267C12.5208 12.2563 12.8374 12.013 13.0374 11.9965C13.2455 11.98 13.4247 11.8954 13.5748 11.7427C13.7248 11.5901 13.7998 11.4106 13.7998 11.2044V3.27218C13.7998 3.05768 13.7207 2.8742 13.5623 2.72159C13.4041 2.56881 13.2165 2.48841 12.9999 2.48013C12.7082 2.47185 12.0499 2.29054 11.0248 1.93548C10.3833 1.72132 9.88127 1.55813 9.51876 1.44691C9.15634 1.33569 8.64974 1.21598 8.00025 1.08794C7.35013 0.960121 6.75024 0.896017 6.20039 0.896017H5.98783H5.03777H4.58787C3.47928 0.912487 2.65882 1.23435 2.12529 1.86119C1.64212 2.4305 1.43806 3.17713 1.51279 4.10112C1.18784 4.40635 0.962677 4.79392 0.837856 5.26428C0.696398 5.76724 0.696398 6.24991 0.837856 6.71182C0.454593 7.21508 0.275395 7.78019 0.30057 8.40719C0.299519 8.67146 0.361864 8.98487 0.487123 9.348Z" fill="#FF0000"/>
<path d="M15.6 11.9839H19.1998C19.4167 11.9839 19.6042 11.9055 19.7625 11.7487C19.9208 11.592 20 11.4064 20 11.1919V3.27166C20 3.05746 19.9208 2.87173 19.7624 2.71483C19.604 2.55832 19.4165 2.47987 19.1998 2.47987H15.6C15.3833 2.47987 15.1959 2.55832 15.0375 2.71483C14.8792 2.87173 14.8 3.05742 14.8 3.27166V11.1919C14.8 11.4064 14.8792 11.592 15.0375 11.7487C15.1959 11.9055 15.3833 11.9839 15.6 11.9839ZM17.0375 4.29287C17.1958 4.14026 17.3833 4.06398 17.6 4.06398C17.825 4.06398 18.0146 4.14026 18.1687 4.29287C18.3229 4.44549 18.3999 4.63312 18.3999 4.85591C18.3999 5.07037 18.3229 5.25605 18.1687 5.41274C18.0146 5.56951 17.825 5.648 17.6 5.648C17.3833 5.648 17.1958 5.56951 17.0375 5.41274C16.8792 5.25609 16.8 5.07041 16.8 4.85591C16.8 4.63312 16.879 4.44553 17.0375 4.29287Z" fill="#FF0000"/>
</g>
<defs>
<clipPath id="clip0">
<rect width="20" height="19.7998" fill="white" transform="translate(20 20.2998) rotate(-180)"/>
</clipPath>
</defs>
</svg>
